<svg width="35" height="35" viewBox="0 0 35 35" fill="none" xmlns="http://www.w3.org/2000/svg">
<path d="M0 -3.05176e-05H34.3353V34.3352H0V-3.05176e-05Z" fill="#CBF244"/>
<path d="M17.1977 10.1935C19.5583 10.1935 19.8801 10.1935 20.8458 10.1935C21.7042 10.1935 22.1334 10.4081 22.4553 10.5154C22.8845 10.73 23.2064 10.8373 23.5283 11.1592C23.8502 11.4811 24.0648 11.8029 24.1721 12.2321C24.2794 12.554 24.3866 12.9832 24.4939 13.8416C24.4939 14.8073 24.4939 15.0219 24.4939 17.4897C24.4939 19.9576 24.4939 20.1722 24.4939 21.1378C24.4939 21.9962 24.2794 22.4254 24.1721 22.7473C23.9575 23.1765 23.8502 23.4984 23.5283 23.8203C23.2064 24.1422 22.8845 24.3568 22.4553 24.4641C22.1334 24.5714 21.7042 24.6787 20.8458 24.786C19.8801 24.786 19.6656 24.786 17.1977 24.786C14.7299 24.786 14.5153 24.786 13.5496 24.786C12.6912 24.786 12.262 24.5714 11.9401 24.4641C11.5109 24.2495 11.189 24.1422 10.8671 23.8203C10.5452 23.4984 10.3306 23.1765 10.2234 22.7473C10.1161 22.4254 10.0088 21.9962 9.90146 21.1378C9.90146 20.1722 9.90146 19.9576 9.90146 17.4897C9.90146 15.0219 9.90146 14.8073 9.90146 13.8416C9.90146 12.9832 10.1161 12.554 10.2234 12.2321C10.4379 11.8029 10.5452 11.4811 10.8671 11.1592C11.189 10.8373 11.5109 10.6227 11.9401 10.5154C12.262 10.4081 12.6912 10.3008 13.5496 10.1935C14.5153 10.1935 14.8372 10.1935 17.1977 10.1935ZM17.1977 8.58401C14.7299 8.58401 14.5153 8.58401 13.5496 8.58401C12.5839 8.58401 11.9401 8.79861 11.4036 9.01321C10.8671 9.2278 10.3306 9.54969 9.79416 10.0862C9.25767 10.6227 9.04308 11.0519 8.72118 11.6956C8.50659 12.2321 8.39929 12.8759 8.29199 13.8416C8.29199 14.8073 8.29199 15.1292 8.29199 17.4897C8.29199 19.9576 8.29199 20.1722 8.29199 21.1378C8.29199 22.1035 8.50659 22.7473 8.72118 23.2838C8.93578 23.8203 9.25767 24.3568 9.79416 24.8933C10.3306 25.4298 10.7598 25.6444 11.4036 25.9662C11.9401 26.1808 12.5839 26.2881 13.5496 26.3954C14.5153 26.3954 14.8372 26.3954 17.1977 26.3954C19.5583 26.3954 19.8801 26.3954 20.8458 26.3954C21.8115 26.3954 22.4553 26.1808 22.9918 25.9662C23.5283 25.7516 24.0648 25.4298 24.6012 24.8933C25.1377 24.3568 25.3523 23.9276 25.6742 23.2838C25.8888 22.7473 25.9961 22.1035 26.1034 21.1378C26.1034 20.1722 26.1034 19.8503 26.1034 17.4897C26.1034 15.1292 26.1034 14.8073 26.1034 13.8416C26.1034 12.8759 25.8888 12.2321 25.6742 11.6956C25.4596 11.1592 25.1377 10.6227 24.6012 10.0862C24.0648 9.54969 23.6356 9.3351 22.9918 9.01321C22.4553 8.79861 21.8115 8.69131 20.8458 8.58401C19.8801 8.58401 19.6656 8.58401 17.1977 8.58401Z" fill="#0016FF"/>
<path d="M17.1977 12.8759C14.6226 12.8759 12.5839 14.9146 12.5839 17.4897C12.5839 20.0649 14.6226 22.1035 17.1977 22.1035C19.7728 22.1035 21.8115 20.0649 21.8115 17.4897C21.8115 14.9146 19.7728 12.8759 17.1977 12.8759ZM17.1977 20.4941C15.5882 20.4941 14.1934 19.2065 14.1934 17.4897C14.1934 15.8803 15.4809 14.4854 17.1977 14.4854C18.8072 14.4854 20.202 15.773 20.202 17.4897C20.202 19.0992 18.8072 20.4941 17.1977 20.4941Z" fill="#0016FF"/>
<path d="M21.9188 13.8416C22.5114 13.8416 22.9918 13.3612 22.9918 12.7686C22.9918 12.176 22.5114 11.6956 21.9188 11.6956C21.3262 11.6956 20.8458 12.176 20.8458 12.7686C20.8458 13.3612 21.3262 13.8416 21.9188 13.8416Z" fill="#0016FF"/>
</svg>
