<svg width="69" height="56" viewBox="0 0 69 56" fill="none" xmlns="http://www.w3.org/2000/svg">
<path d="M2.42287 14.6725C2.42287 15.471 2.52489 16.1845 2.72892 16.8131C2.94996 17.4247 3.2475 17.9428 3.62156 18.3675C3.99562 18.7752 4.42918 19.0895 4.92226 19.3104C5.43234 19.5312 5.96792 19.6416 6.52901 19.6416C7.09009 19.6416 7.61718 19.5312 8.11025 19.3104C8.62033 19.0895 9.0624 18.7752 9.43646 18.3675C9.81051 17.9428 10.0996 17.4247 10.3036 16.8131C10.5246 16.1845 10.6351 15.471 10.6351 14.6725C10.6351 13.8741 10.5246 13.1691 10.3036 12.5575C10.0996 11.9289 9.81051 11.4023 9.43646 10.9776C9.0624 10.5529 8.62033 10.2301 8.11025 10.0092C7.61718 9.78837 7.09009 9.67795 6.52901 9.67795C5.96792 9.67795 5.43234 9.78837 4.92226 10.0092C4.42918 10.2301 3.99562 10.5529 3.62156 10.9776C3.2475 11.4023 2.94996 11.9289 2.72892 12.5575C2.52489 13.1691 2.42287 13.8741 2.42287 14.6725ZM0.12752 14.6725C0.12752 13.7042 0.263541 12.8038 0.535583 11.9714C0.807625 11.122 1.21569 10.3915 1.75977 9.77988C2.30386 9.15131 2.97546 8.65864 3.77458 8.30189C4.57371 7.94513 5.49185 7.76675 6.52901 7.76675C7.58317 7.76675 8.50131 7.94513 9.28343 8.30189C10.0826 8.65864 10.7542 9.15131 11.2982 9.77988C11.8423 10.3915 12.2504 11.122 12.5224 11.9714C12.7945 12.8038 12.9305 13.7042 12.9305 14.6725C12.9305 15.6409 12.7945 16.5413 12.5224 17.3737C12.2504 18.2061 11.8423 18.9366 11.2982 19.5652C10.7542 20.1768 10.0826 20.6609 9.28343 21.0177C8.50131 21.3575 7.58317 21.5274 6.52901 21.5274C5.49185 21.5274 4.57371 21.3575 3.77458 21.0177C2.97546 20.6609 2.30386 20.1768 1.75977 19.5652C1.21569 18.9366 0.807625 18.2061 0.535583 17.3737C0.263541 16.5413 0.12752 15.6409 0.12752 14.6725Z" fill="#0016FF"/>
<path d="M18.4959 8.07255H21.1228V9.98374H18.4959V18.1637C18.4959 18.4185 18.5129 18.6223 18.5469 18.7752C18.5979 18.9281 18.683 19.0471 18.802 19.132C18.921 19.2169 19.0825 19.2764 19.2866 19.3104C19.5076 19.3274 19.7881 19.3359 20.1282 19.3359H21.1228V21.247H19.4651C18.904 21.247 18.4194 21.2131 18.0114 21.1451C17.6203 21.0602 17.2972 20.9158 17.0422 20.7119C16.8042 20.5081 16.6256 20.2192 16.5066 19.8455C16.3876 19.4718 16.3281 18.9791 16.3281 18.3675V9.98374H14.0838V8.07255H16.3281V4.12274H18.4959V8.07255Z" fill="#0016FF"/>
<path d="M26.5406 8.07255H29.1675V9.98374H26.5406V18.1637C26.5406 18.4185 26.5576 18.6223 26.5916 18.7752C26.6426 18.9281 26.7277 19.0471 26.8467 19.132C26.9657 19.2169 27.1272 19.2764 27.3313 19.3104C27.5523 19.3274 27.8328 19.3359 28.1729 19.3359H29.1675V21.247H27.5098C26.9487 21.247 26.4641 21.2131 26.0561 21.1451C25.665 21.0602 25.3419 20.9158 25.0869 20.7119C24.8489 20.5081 24.6703 20.2192 24.5513 19.8455C24.4323 19.4718 24.3728 18.9791 24.3728 18.3675V9.98374H22.1284V8.07255H24.3728V4.12274H26.5406V8.07255Z" fill="#0016FF"/>
<path d="M2.16783 38.0237C2.18484 38.4993 2.29535 38.9071 2.49939 39.2468C2.70342 39.5696 2.96696 39.8329 3.29001 40.0368C3.63006 40.2237 4.00412 40.3596 4.41218 40.4445C4.83725 40.5295 5.27081 40.5719 5.71288 40.5719C6.05293 40.5719 6.40999 40.5464 6.78405 40.4955C7.1581 40.4445 7.49816 40.3511 7.8042 40.2152C8.12725 40.0793 8.39079 39.8839 8.59483 39.6291C8.79886 39.3573 8.90087 39.0175 8.90087 38.6098C8.90087 38.0491 8.68834 37.6244 8.26328 37.3356C7.83821 37.0468 7.30263 36.8175 6.65653 36.6476C6.02743 36.4607 5.33882 36.2993 4.59071 36.1634C3.84259 36.0105 3.14549 35.8067 2.49939 35.5519C1.87029 35.28 1.34321 34.9063 0.918142 34.4306C0.493076 33.9549 0.280543 33.2924 0.280543 32.443C0.280543 31.7804 0.425066 31.2113 0.71411 30.7356C1.02016 30.26 1.40272 29.8777 1.86179 29.5889C2.33786 29.2831 2.86494 29.0623 3.44303 28.9264C4.03812 28.7735 4.62471 28.697 5.2028 28.697C5.95092 28.697 6.63952 28.765 7.26862 28.9009C7.89772 29.0198 8.4503 29.2407 8.92638 29.5634C9.41945 29.8692 9.81051 30.2939 10.0996 30.8376C10.3886 31.3642 10.5586 32.0268 10.6096 32.8252H8.4418C8.4078 32.4005 8.29728 32.0522 8.11025 31.7804C7.92322 31.4916 7.68519 31.2623 7.39614 31.0924C7.1071 30.9225 6.78405 30.8036 6.42699 30.7356C6.08694 30.6507 5.73839 30.6082 5.38133 30.6082C5.05828 30.6082 4.72673 30.6337 4.38668 30.6847C4.06363 30.7356 3.76608 30.8291 3.49404 30.965C3.222 31.0839 3.00096 31.2538 2.83094 31.4746C2.66091 31.6785 2.5759 31.9503 2.5759 32.2901C2.5759 32.6638 2.70342 32.9781 2.95846 33.2329C3.2305 33.4708 3.57055 33.6746 3.97861 33.8445C4.38668 33.9974 4.84575 34.1333 5.35583 34.2522C5.86591 34.3542 6.37598 34.4646 6.88606 34.5835C7.43015 34.7024 7.95723 34.8468 8.46731 35.0167C8.99439 35.1866 9.45346 35.4159 9.84452 35.7048C10.2526 35.9766 10.5756 36.3248 10.8137 36.7495C11.0687 37.1742 11.1962 37.7009 11.1962 38.3295C11.1962 39.1279 11.0262 39.7905 10.6861 40.3171C10.3631 40.8437 9.92953 41.2684 9.38545 41.5912C8.85837 41.914 8.25477 42.1349 7.57467 42.2538C6.91157 42.3897 6.24846 42.4576 5.58536 42.4576C4.85425 42.4576 4.15714 42.3812 3.49404 42.2283C2.83094 42.0754 2.24435 41.8291 1.73427 41.4893C1.22419 41.1325 0.816126 40.6739 0.510079 40.1132C0.204032 39.5356 0.0340052 38.8391 0 38.0237H2.16783Z" fill="#0016FF"/>
<path d="M16.6031 29.0028H19.23V30.914H16.6031V39.0939C16.6031 39.3488 16.6201 39.5526 16.6541 39.7055C16.7051 39.8584 16.7901 39.9773 16.9091 40.0623C17.0281 40.1472 17.1897 40.2067 17.3937 40.2407C17.6147 40.2576 17.8953 40.2661 18.2353 40.2661H19.23V42.1773H17.5722C17.0111 42.1773 16.5266 42.1434 16.1185 42.0754C15.7274 41.9905 15.4044 41.8461 15.1493 41.6422C14.9113 41.4383 14.7328 41.1495 14.6138 40.7758C14.4947 40.402 14.4352 39.9094 14.4352 39.2978V30.914H12.1909V29.0028H14.4352V25.053H16.6031V29.0028Z" fill="#0016FF"/>
<path d="M32.554 42.1773H30.5137V40.0878H30.4627C30.0036 40.9032 29.417 41.5063 28.7029 41.897C27.9888 42.2708 27.1471 42.4576 26.178 42.4576C25.3109 42.4576 24.5883 42.3472 24.0102 42.1264C23.4321 41.8885 22.9645 41.5573 22.6074 41.1325C22.2504 40.7078 21.9953 40.2067 21.8423 39.6291C21.7063 39.0345 21.6383 38.3804 21.6383 37.6669V29.0028H23.8061V37.9217C23.8061 38.7372 24.0442 39.3827 24.5202 39.8584C24.9963 40.3341 25.6509 40.5719 26.484 40.5719C27.1471 40.5719 27.7167 40.47 28.1928 40.2661C28.6859 40.0623 29.0939 39.7735 29.417 39.3997C29.74 39.026 29.9781 38.5928 30.1311 38.1001C30.3011 37.5905 30.3861 37.0383 30.3861 36.4437V29.0028H32.554V42.1773Z" fill="#0016FF"/>
<path d="M37.3912 35.7048C37.3912 36.3163 37.4677 36.9194 37.6207 37.514C37.7907 38.0916 38.0373 38.6098 38.3603 39.0685C38.7004 39.5271 39.1254 39.8924 39.6355 40.1642C40.1626 40.436 40.7747 40.5719 41.4718 40.5719C42.2029 40.5719 42.8235 40.4275 43.3336 40.1387C43.8437 39.8499 44.2602 39.4762 44.5833 39.0175C44.9063 38.5418 45.1359 38.0067 45.2719 37.4121C45.4249 36.8175 45.5014 36.2144 45.5014 35.6028C45.5014 34.9573 45.4249 34.3372 45.2719 33.7426C45.1188 33.131 44.8723 32.5959 44.5323 32.1372C44.2092 31.6785 43.7841 31.3132 43.2571 31.0414C42.73 30.7526 42.0924 30.6082 41.3443 30.6082C40.6132 30.6082 39.9926 30.7526 39.4825 31.0414C38.9724 31.3302 38.5643 31.7125 38.2583 32.1882C37.9522 32.6638 37.7312 33.2075 37.5952 33.819C37.4592 34.4306 37.3912 35.0592 37.3912 35.7048ZM47.5927 42.1773H45.4249V40.3935H45.3739C45.0168 41.124 44.4557 41.6507 43.6906 41.9735C42.9255 42.2962 42.0839 42.4576 41.1657 42.4576C40.1456 42.4576 39.2529 42.2708 38.4878 41.897C37.7397 41.5233 37.1106 41.0221 36.6005 40.3935C36.1075 39.765 35.7334 39.0345 35.4784 38.202C35.2233 37.3696 35.0958 36.4862 35.0958 35.5519C35.0958 34.6175 35.2148 33.7341 35.4529 32.9017C35.7079 32.0692 36.082 31.3472 36.575 30.7356C37.0851 30.1071 37.7142 29.6144 38.4623 29.2577C39.2274 28.8839 40.1116 28.697 41.1147 28.697C41.4548 28.697 41.8203 28.731 42.2114 28.799C42.6025 28.8669 42.9935 28.9858 43.3846 29.1557C43.7756 29.3086 44.1412 29.521 44.4813 29.7928C44.8383 30.0476 45.1358 30.3704 45.3739 30.7611H45.4249V23.9828H47.5927V42.1773Z" fill="#0016FF"/>
<path d="M53.2233 26.6329H51.0555V23.9828H53.2233V26.6329ZM51.0555 29.0028H53.2233V42.1773H51.0555V29.0028Z" fill="#0016FF"/>
<path d="M58.1629 35.6028C58.1629 36.4013 58.2649 37.1148 58.469 37.7434C58.69 38.3549 58.9875 38.8731 59.3616 39.2978C59.7357 39.7055 60.1692 40.0198 60.6623 40.2407C61.1724 40.4615 61.708 40.5719 62.2691 40.5719C62.8301 40.5719 63.3572 40.4615 63.8503 40.2407C64.3604 40.0198 64.8024 39.7055 65.1765 39.2978C65.5506 38.8731 65.8396 38.3549 66.0436 37.7434C66.2647 37.1148 66.3752 36.4013 66.3752 35.6028C66.3752 34.8044 66.2647 34.0993 66.0436 33.4878C65.8396 32.8592 65.5506 32.3326 65.1765 31.9078C64.8024 31.4831 64.3604 31.1604 63.8503 30.9395C63.3572 30.7187 62.8301 30.6082 62.2691 30.6082C61.708 30.6082 61.1724 30.7187 60.6623 30.9395C60.1692 31.1604 59.7357 31.4831 59.3616 31.9078C58.9875 32.3326 58.69 32.8592 58.469 33.4878C58.2649 34.0993 58.1629 34.8044 58.1629 35.6028ZM55.8676 35.6028C55.8676 34.6345 56.0036 33.7341 56.2756 32.9017C56.5477 32.0522 56.9557 31.3217 57.4998 30.7102C58.0439 30.0816 58.7155 29.5889 59.5146 29.2322C60.3137 28.8754 61.2319 28.697 62.2691 28.697C63.3232 28.697 64.2414 28.8754 65.0235 29.2322C65.8226 29.5889 66.4942 30.0816 67.0383 30.7102C67.5824 31.3217 67.9904 32.0522 68.2625 32.9017C68.5345 33.7341 68.6705 34.6345 68.6705 35.6028C68.6705 36.5712 68.5345 37.4715 68.2625 38.304C67.9904 39.1364 67.5824 39.8669 67.0383 40.4955C66.4942 41.1071 65.8226 41.5912 65.0235 41.948C64.2414 42.2878 63.3232 42.4576 62.2691 42.4576C61.2319 42.4576 60.3137 42.2878 59.5146 41.948C58.7155 41.5912 58.0439 41.1071 57.4998 40.4955C56.9557 39.8669 56.5477 39.1364 56.2756 38.304C56.0036 37.4715 55.8676 36.5712 55.8676 35.6028Z" fill="#0016FF"/>
<path d="M0.738281 48.1186H3.64245C4.07571 48.1186 4.43789 48.1728 4.72898 48.2813C5.02008 48.3898 5.25363 48.5322 5.42964 48.7085C5.60565 48.8848 5.73089 49.0882 5.80535 49.3187C5.88659 49.5425 5.92721 49.7696 5.92721 50.0002C5.92721 50.1968 5.89336 50.3833 5.82566 50.5596C5.75797 50.7359 5.65981 50.8918 5.53118 51.0274C5.40933 51.163 5.2604 51.2783 5.08439 51.3732C4.91515 51.4614 4.7256 51.519 4.51574 51.5461L4.53605 51.5665C4.58343 51.5597 4.69513 51.58 4.87114 51.6275C5.04715 51.6749 5.22993 51.7665 5.41948 51.9021C5.6158 52.0309 5.78843 52.214 5.93736 52.4513C6.09306 52.6818 6.17091 52.9802 6.17091 53.3463C6.17091 53.6786 6.10999 53.9701 5.98813 54.221C5.86628 54.4719 5.69365 54.6855 5.47026 54.8618C5.25363 55.0313 4.98961 55.1601 4.67821 55.2483C4.36681 55.3364 4.02155 55.3805 3.64245 55.3805H0.738281V48.1186ZM3.64245 51.4139C4.25849 51.4139 4.71883 51.2783 5.02346 51.0071C5.32809 50.7291 5.48041 50.3663 5.48041 49.9188C5.48041 49.6544 5.42964 49.434 5.32809 49.2577C5.22655 49.0746 5.09116 48.9289 4.92192 48.8204C4.75267 48.7051 4.55636 48.6237 4.33296 48.5763C4.11633 48.5288 3.88616 48.5051 3.64245 48.5051H1.18508V51.4139H3.64245ZM3.64245 54.994C4.29234 54.994 4.80006 54.8584 5.16562 54.5872C5.53795 54.3092 5.72412 53.8956 5.72412 53.3463C5.72412 53.0344 5.65981 52.7802 5.53118 52.5835C5.40256 52.3801 5.2367 52.2208 5.03361 52.1055C4.8373 51.9902 4.6139 51.9123 4.36342 51.8716C4.11971 51.8241 3.87939 51.8004 3.64245 51.8004H1.18508V54.994H3.64245Z" fill="#0016FF"/>
<path d="M7.44918 51.3122H7.47965C7.52704 51.1427 7.61166 50.9833 7.73351 50.8342C7.86213 50.685 8.01445 50.5562 8.19046 50.4477C8.37324 50.3392 8.57294 50.2578 8.78957 50.2036C9.01297 50.1426 9.24314 50.1154 9.48007 50.1222V50.5087C9.27699 50.4816 9.04343 50.5019 8.77942 50.5697C8.52217 50.6375 8.27508 50.7867 8.03814 51.0172C7.94337 51.1189 7.85875 51.2173 7.78428 51.3122C7.71658 51.4071 7.65904 51.5122 7.61165 51.6275C7.56427 51.7428 7.52703 51.8716 7.49996 52.014C7.47288 52.1564 7.45595 52.3259 7.44918 52.5225V55.3805H7.06331V50.1527H7.44918V51.3122Z" fill="#0016FF"/>
<path d="M13.1538 54.3431H13.1335C13.0726 54.499 12.9846 54.6482 12.8695 54.7906C12.7544 54.9262 12.6123 55.0482 12.443 55.1567C12.2806 55.2652 12.0944 55.35 11.8845 55.411C11.6747 55.472 11.4445 55.5025 11.194 55.5025C10.6389 55.5025 10.2091 55.3839 9.90442 55.1465C9.59979 54.9024 9.44747 54.5295 9.44747 54.0278C9.44747 53.7226 9.5084 53.4752 9.63025 53.2853C9.7521 53.0887 9.90442 52.9361 10.0872 52.8276C10.2767 52.7124 10.4832 52.631 10.7066 52.5835C10.9368 52.5361 11.1568 52.5022 11.3667 52.4818L11.9658 52.431C12.2433 52.4106 12.46 52.3801 12.6157 52.3394C12.7781 52.292 12.9 52.2309 12.9812 52.1564C13.0625 52.075 13.1132 51.9733 13.1335 51.8512C13.1538 51.7292 13.164 51.5766 13.164 51.3936C13.164 51.2512 13.1369 51.1189 13.0828 50.9969C13.0286 50.8749 12.944 50.7664 12.8289 50.6714C12.7138 50.5765 12.5649 50.5019 12.3821 50.4477C12.1993 50.3934 11.9759 50.3663 11.7119 50.3663C11.2448 50.3663 10.8657 50.4816 10.5746 50.7121C10.2903 50.9427 10.1346 51.2918 10.1075 51.7597H9.72164C9.74872 51.1834 9.9315 50.7528 10.27 50.468C10.6152 50.1765 11.1026 50.0307 11.7322 50.0307C12.3618 50.0307 12.8187 50.1561 13.1031 50.407C13.3942 50.6511 13.5397 50.9732 13.5397 51.3732V54.4143C13.5397 54.4888 13.5397 54.5634 13.5397 54.638C13.5465 54.7126 13.56 54.7804 13.5803 54.8414C13.6006 54.9024 13.6345 54.9533 13.6819 54.994C13.7293 55.0279 13.797 55.0448 13.885 55.0448C13.9527 55.0448 14.0474 55.0347 14.1693 55.0143V55.3398C14.0677 55.3669 13.9628 55.3805 13.8545 55.3805C13.6988 55.3805 13.5736 55.3601 13.4788 55.3194C13.3908 55.2788 13.3231 55.2245 13.2757 55.1567C13.2283 55.0889 13.1945 55.0109 13.1742 54.9228C13.1606 54.8279 13.1538 54.7262 13.1538 54.6177V54.3431ZM13.1538 52.4106C13.0591 52.5259 12.9135 52.6039 12.7172 52.6446C12.5277 52.6852 12.3144 52.7158 12.0775 52.7361L11.4276 52.7971C11.238 52.8175 11.0485 52.848 10.8589 52.8886C10.6694 52.9226 10.4968 52.9836 10.3411 53.0717C10.1921 53.1599 10.0703 53.2819 9.9755 53.4379C9.88073 53.587 9.83334 53.7837 9.83334 54.0278C9.83334 54.4143 9.95519 54.7024 10.1989 54.8923C10.4426 55.0754 10.7777 55.1669 11.2042 55.1669C11.6442 55.1669 11.9929 55.0889 12.2501 54.933C12.5073 54.7702 12.7037 54.5872 12.8391 54.3837C12.9744 54.1735 13.0591 53.9735 13.0929 53.7837C13.1335 53.587 13.1538 53.4548 13.1538 53.387V52.4106Z" fill="#0016FF"/>
<path d="M14.7684 50.1527H15.1543V51.2715H15.1746C15.2423 51.0749 15.3371 50.902 15.4589 50.7528C15.5875 50.5969 15.7331 50.4646 15.8955 50.3561C16.0648 50.2477 16.2476 50.1663 16.4439 50.112C16.6402 50.0578 16.8399 50.0307 17.043 50.0307C17.3476 50.0307 17.6049 50.068 17.8147 50.1426C18.0314 50.2171 18.2074 50.3155 18.3428 50.4375C18.4782 50.5596 18.5831 50.6986 18.6576 50.8545C18.7388 51.0037 18.7963 51.1562 18.8302 51.3122C18.864 51.4681 18.8843 51.6207 18.8911 51.7699C18.8979 51.9123 18.9013 52.0377 18.9013 52.1462V55.3805H18.5154V52.075C18.5154 51.9462 18.5052 51.7834 18.4849 51.5868C18.4646 51.3902 18.4037 51.2037 18.3022 51.0274C18.2074 50.8443 18.0584 50.6884 17.8554 50.5596C17.659 50.4307 17.3849 50.3663 17.0328 50.3663C16.735 50.3663 16.471 50.4206 16.2408 50.529C16.0106 50.6375 15.8143 50.7901 15.6518 50.9867C15.4894 51.1766 15.3641 51.4071 15.2761 51.6783C15.1949 51.9428 15.1543 52.2343 15.1543 52.553V55.3805H14.7684V50.1527Z" fill="#0016FF"/>
<path d="M24.0654 54.2617H24.045C23.8284 54.6753 23.5576 54.9872 23.2327 55.1974C22.9078 55.4008 22.5117 55.5025 22.0446 55.5025C21.652 55.5025 21.3135 55.4279 21.0292 55.2788C20.7449 55.1296 20.5113 54.9296 20.3285 54.6787C20.1457 54.4278 20.0103 54.1396 19.9223 53.8142C19.8343 53.4819 19.7903 53.1361 19.7903 52.7768C19.7903 52.3903 19.8377 52.0309 19.9325 51.6987C20.0273 51.3597 20.1694 51.0681 20.359 50.824C20.5553 50.5799 20.799 50.3867 21.0901 50.2443C21.3812 50.1019 21.7231 50.0307 22.1157 50.0307C22.3256 50.0307 22.532 50.0612 22.7351 50.1222C22.9382 50.1765 23.1244 50.2578 23.2936 50.3663C23.4696 50.4748 23.6219 50.6104 23.7506 50.7731C23.8792 50.9359 23.9774 51.1189 24.045 51.3224H24.0654V48.1186H24.4512V55.3805H24.0654V54.2617ZM22.1259 55.1669C22.4576 55.1669 22.7419 55.0991 22.9788 54.9635C23.2225 54.8279 23.4222 54.6482 23.5779 54.4244C23.7404 54.2007 23.8589 53.9464 23.9334 53.6616C24.0146 53.3701 24.0552 53.0751 24.0552 52.7768C24.0552 52.4717 24.0146 52.1767 23.9334 51.8919C23.8589 51.6004 23.7438 51.3427 23.5881 51.1189C23.4324 50.8884 23.2293 50.7053 22.9788 50.5697C22.7351 50.4341 22.4474 50.3663 22.1157 50.3663C21.7705 50.3663 21.476 50.4341 21.2323 50.5697C20.9886 50.6986 20.7855 50.8749 20.623 51.0986C20.4673 51.3224 20.3522 51.58 20.2777 51.8716C20.2101 52.1631 20.1762 52.4649 20.1762 52.7768C20.1762 53.0819 20.2134 53.3802 20.2879 53.6718C20.3691 53.9566 20.4876 54.2108 20.6433 54.4346C20.8058 54.6584 21.0089 54.838 21.2526 54.9736C21.4963 55.1025 21.7874 55.1669 22.1259 55.1669Z" fill="#0016FF"/>
<path d="M28.3707 53.6515C28.3707 53.3531 28.4282 53.0921 28.5433 52.8683C28.6652 52.6446 28.8175 52.4445 29.0003 52.2682C29.183 52.0919 29.3861 51.9326 29.6095 51.7902C29.8329 51.6478 30.0496 51.5088 30.2594 51.3732C30.1443 51.2308 30.0292 51.0918 29.9142 50.9562C29.7991 50.8138 29.6942 50.668 29.5994 50.5189C29.5046 50.3629 29.4268 50.2036 29.3658 50.0409C29.3049 49.8713 29.2744 49.6883 29.2744 49.4916C29.2744 49.3018 29.3184 49.1323 29.4064 48.9831C29.4944 48.8272 29.6095 48.6949 29.7517 48.5864C29.8939 48.478 30.0563 48.3932 30.2391 48.3322C30.4219 48.2712 30.6081 48.2406 30.7976 48.2406C30.9939 48.2406 31.1835 48.2678 31.3663 48.322C31.549 48.3762 31.7115 48.4576 31.8537 48.5661C31.9958 48.6678 32.1075 48.7966 32.1888 48.9526C32.2768 49.1085 32.3208 49.2882 32.3208 49.4916C32.3208 49.7493 32.2734 49.973 32.1786 50.1629C32.0906 50.3528 31.9755 50.5257 31.8334 50.6816C31.6912 50.8308 31.5287 50.9698 31.3459 51.0986C31.1699 51.2207 30.9939 51.3461 30.8179 51.4749L32.5442 53.6006C32.6186 53.4107 32.6762 53.2141 32.7168 53.0107C32.7642 52.8073 32.7879 52.6005 32.7879 52.3903H33.1737C33.1602 52.6547 33.1196 52.9192 33.0519 53.1836C32.991 53.4413 32.9097 53.6887 32.8082 53.9261L33.9861 55.3805H33.4682L32.5848 54.3024C32.3614 54.6753 32.0737 54.9703 31.7217 55.1872C31.3696 55.3974 30.9702 55.5025 30.5234 55.5025C30.2188 55.5025 29.9345 55.4618 29.6705 55.3805C29.4132 55.3059 29.1864 55.194 28.9901 55.0448C28.8006 54.8889 28.6482 54.6956 28.5332 54.4651C28.4248 54.2278 28.3707 53.9566 28.3707 53.6515ZM30.5945 51.1901C30.7434 51.0952 30.8958 50.9935 31.0515 50.885C31.2072 50.7698 31.3493 50.6443 31.4779 50.5087C31.6133 50.3731 31.7217 50.2205 31.8029 50.051C31.8909 49.8815 31.9349 49.695 31.9349 49.4916C31.9349 49.356 31.9011 49.234 31.8334 49.1255C31.7657 49.0102 31.6777 48.9119 31.5693 48.8305C31.4678 48.7492 31.3493 48.6882 31.2139 48.6475C31.0785 48.6 30.9398 48.5763 30.7976 48.5763C30.6554 48.5763 30.5167 48.6 30.3813 48.6475C30.2459 48.6882 30.124 48.7492 30.0157 48.8305C29.9142 48.9119 29.8295 49.0102 29.7618 49.1255C29.6942 49.234 29.6603 49.356 29.6603 49.4916C29.6603 49.6679 29.6942 49.8341 29.7618 49.99C29.8295 50.1392 29.9108 50.285 30.0056 50.4273C30.1003 50.563 30.2019 50.6952 30.3102 50.824C30.4185 50.946 30.5133 51.0681 30.5945 51.1901ZM28.7566 53.6515C28.7566 53.8888 28.8073 54.1024 28.9089 54.2922C29.0104 54.4821 29.1424 54.6414 29.3049 54.7702C29.4741 54.8991 29.6637 54.9974 29.8735 55.0652C30.0834 55.133 30.3 55.1669 30.5234 55.1669C30.8281 55.1669 31.0921 55.1093 31.3155 54.994C31.5456 54.8719 31.7352 54.7397 31.8841 54.5973C32.0331 54.4549 32.1448 54.3227 32.2192 54.2007C32.2937 54.0718 32.3309 54.0006 32.3309 53.9871L30.4625 51.658C30.273 51.78 30.0766 51.9055 29.8735 52.0343C29.6772 52.1564 29.4944 52.2954 29.3252 52.4513C29.1627 52.6073 29.0273 52.7836 28.919 52.9802C28.8107 53.17 28.7566 53.3938 28.7566 53.6515Z" fill="#0016FF"/>
<path d="M41.278 51.7699C41.2576 51.5393 41.1967 51.3359 41.0952 51.1596C41.0004 50.9833 40.8752 50.8376 40.7195 50.7223C40.5638 50.607 40.381 50.5189 40.1711 50.4579C39.968 50.3968 39.748 50.3663 39.5111 50.3663C39.1861 50.3663 38.8984 50.4341 38.6479 50.5697C38.3975 50.6986 38.1876 50.8749 38.0184 51.0986C37.8491 51.3156 37.7205 51.5665 37.6325 51.8512C37.5445 52.1292 37.5005 52.4174 37.5005 52.7157C37.5005 53.0683 37.5411 53.3938 37.6223 53.6921C37.7036 53.9905 37.8288 54.2515 37.9981 54.4753C38.1673 54.6923 38.3772 54.8618 38.6276 54.9838C38.8781 55.1059 39.1726 55.1669 39.5111 55.1669C39.7548 55.1669 39.9782 55.1262 40.1813 55.0448C40.3911 54.9635 40.5739 54.8516 40.7296 54.7092C40.8921 54.5668 41.0241 54.3973 41.1256 54.2007C41.2272 53.9973 41.2949 53.7769 41.3287 53.5396H41.7146C41.674 53.8515 41.5894 54.1295 41.4607 54.3736C41.3321 54.6177 41.1696 54.8245 40.9733 54.994C40.777 55.1567 40.5536 55.2822 40.3031 55.3703C40.0526 55.4584 39.7886 55.5025 39.5111 55.5025C39.0846 55.5025 38.719 55.4279 38.4144 55.2788C38.1165 55.1228 37.8694 54.916 37.6731 54.6584C37.4836 54.4007 37.3414 54.1057 37.2466 53.7735C37.1586 53.4345 37.1146 53.0819 37.1146 52.7157C37.1146 52.3496 37.1654 52.0038 37.2669 51.6783C37.3753 51.3529 37.531 51.0681 37.734 50.824C37.9371 50.5799 38.1876 50.3867 38.4855 50.2443C38.7833 50.1019 39.1252 50.0307 39.5111 50.0307C39.7954 50.0307 40.0594 50.068 40.3031 50.1426C40.5536 50.2104 40.7736 50.3155 40.9632 50.4579C41.1595 50.6002 41.3186 50.7833 41.4404 51.0071C41.5623 51.224 41.6367 51.4783 41.6638 51.7699H41.278Z" fill="#0016FF"/>
<path d="M42.3701 52.7666C42.3701 52.3937 42.4209 52.0445 42.5224 51.719C42.6307 51.3868 42.7864 51.0952 42.9895 50.8443C43.1926 50.5935 43.4431 50.3968 43.741 50.2544C44.0388 50.1053 44.3807 50.0307 44.7666 50.0307C45.1524 50.0307 45.4943 50.1053 45.7922 50.2544C46.09 50.3968 46.3405 50.5935 46.5436 50.8443C46.7467 51.0952 46.899 51.3868 47.0005 51.719C47.1089 52.0445 47.163 52.3937 47.163 52.7666C47.163 53.1395 47.1089 53.4921 47.0005 53.8244C46.899 54.1566 46.7467 54.4482 46.5436 54.699C46.3405 54.9431 46.09 55.1398 45.7922 55.2889C45.4943 55.4313 45.1524 55.5025 44.7666 55.5025C44.3807 55.5025 44.0388 55.4313 43.741 55.2889C43.4431 55.1398 43.1926 54.9431 42.9895 54.699C42.7864 54.4482 42.6307 54.1566 42.5224 53.8244C42.4209 53.4921 42.3701 53.1395 42.3701 52.7666ZM42.756 52.7666C42.756 53.0785 42.8 53.3802 42.888 53.6718C42.976 53.9566 43.1046 54.2108 43.2739 54.4346C43.4431 54.6584 43.653 54.838 43.9034 54.9736C44.1539 55.1025 44.4416 55.1669 44.7666 55.1669C45.0915 55.1669 45.3792 55.1025 45.6297 54.9736C45.8802 54.838 46.09 54.6584 46.2593 54.4346C46.4285 54.2108 46.5571 53.9566 46.6451 53.6718C46.7331 53.3802 46.7771 53.0785 46.7771 52.7666C46.7771 52.4547 46.7331 52.1564 46.6451 51.8716C46.5571 51.58 46.4285 51.3224 46.2593 51.0986C46.09 50.8749 45.8802 50.6986 45.6297 50.5697C45.3792 50.4341 45.0915 50.3663 44.7666 50.3663C44.4416 50.3663 44.1539 50.4341 43.9034 50.5697C43.653 50.6986 43.4431 50.8749 43.2739 51.0986C43.1046 51.3224 42.976 51.58 42.888 51.8716C42.8 52.1564 42.756 52.4547 42.756 52.7666Z" fill="#0016FF"/>
<path d="M48.6467 54.3329H49.1645V55.3805H48.6467V54.3329Z" fill="#0016FF"/>
<path d="M37.4116 0H53.3486V15.8754H37.4116V0Z" fill="#CBF244"/>
<path d="M32.0605 18.4185H34.8915V21.247H32.0605V18.4185Z" fill="#CBF244"/>
</svg>
