<svg width="35" height="35" viewBox="0 0 35 35" fill="none" xmlns="http://www.w3.org/2000/svg">
<path d="M0 0H34.3353V34.3353H0V0Z" fill="#0016FF"/>
<path d="M14.0011 11.8027C14.4967 11.8027 14.9541 11.8409 15.3734 11.9552C15.7927 12.0314 16.1357 12.1839 16.4406 12.3745C16.7456 12.5651 16.9743 12.8319 17.1267 13.1749C17.2792 13.518 17.3554 13.9373 17.3554 14.3947C17.3554 14.9283 17.2411 15.3857 16.9743 15.7288C16.7456 16.0718 16.3644 16.3768 15.907 16.6055C16.555 16.7961 17.0505 17.1391 17.3554 17.5965C17.6604 18.0539 17.851 18.6257 17.851 19.2737C17.851 19.8073 17.7366 20.2647 17.546 20.6459C17.3555 21.0271 17.0505 21.3701 16.7075 21.5988C16.3644 21.8275 15.9451 22.0181 15.4877 22.1325C15.0303 22.2468 14.5729 22.323 14.1155 22.323H9.00781V11.8027H14.0011ZM13.6962 16.0718C14.1155 16.0718 14.4586 15.9575 14.7254 15.7669C14.9922 15.5763 15.1065 15.2333 15.1065 14.814C15.1065 14.5853 15.0684 14.3566 14.9922 14.2041C14.916 14.0516 14.8016 13.9373 14.6491 13.8229C14.4967 13.7467 14.3442 13.6705 14.1536 13.6324C13.963 13.5942 13.7724 13.5942 13.5437 13.5942H11.333V16.0718H13.6962ZM13.8106 20.5697C14.0393 20.5697 14.268 20.5315 14.4586 20.4934C14.6491 20.4553 14.8397 20.3791 14.9922 20.2647C15.1447 20.1504 15.259 20.036 15.3734 19.8454C15.4496 19.6549 15.5258 19.4261 15.5258 19.1593C15.5258 18.6257 15.3734 18.2445 15.0684 17.9777C14.7635 17.749 14.3442 17.6346 13.8487 17.6346H11.333V20.5697H13.8106ZM21.1672 20.5315C21.4721 20.8365 21.9295 20.9889 22.5394 20.9889C22.9587 20.9889 23.3398 20.8746 23.6448 20.684C23.9497 20.4553 24.1403 20.2266 24.2165 19.9979H26.0843C25.7793 20.9127 25.3219 21.5607 24.712 21.98C24.1022 22.3612 23.3779 22.5899 22.5013 22.5899C21.8914 22.5899 21.3577 22.4755 20.8622 22.2849C20.3667 22.0943 19.9855 21.8275 19.6425 21.4464C19.2994 21.1033 19.0326 20.684 18.8801 20.1885C18.6895 19.693 18.6133 19.1593 18.6133 18.5495C18.6133 17.9777 18.6895 17.4441 18.8801 16.9485C19.0707 16.453 19.3375 16.0337 19.6806 15.6526C20.0236 15.3095 20.4429 15.0046 20.9003 14.814C21.3959 14.6234 21.8914 14.509 22.5013 14.509C23.1492 14.509 23.721 14.6234 24.2165 14.8902C24.712 15.157 25.0932 15.462 25.3982 15.9194C25.7031 16.3387 25.9318 16.8342 26.0843 17.3678C26.1605 17.9015 26.1986 18.4351 26.1605 19.045H20.6335C20.6335 19.6549 20.8622 20.2266 21.1672 20.5315ZM23.5685 16.5293C23.3017 16.2624 22.8824 16.11 22.3869 16.11C22.0439 16.11 21.777 16.1862 21.5483 16.3005C21.3196 16.4149 21.1672 16.5674 21.0147 16.7198C20.8622 16.8723 20.786 17.0629 20.7479 17.2535C20.7098 17.4441 20.6716 17.5965 20.6716 17.749H24.1022C24.0259 17.1772 23.8354 16.7961 23.5685 16.5293ZM20.2142 12.527H24.4833V13.5561H20.2142V12.527Z" fill="#CBF244"/>
</svg>
