<svg width="36" height="35" viewBox="0 0 36 35" fill="none" xmlns="http://www.w3.org/2000/svg">
<path d="M0.780273 0H35.1155V34.3353H0.780273V0Z" fill="#0016FF"/>
<path d="M17.978 10.1935C20.3385 10.1935 20.6604 10.1935 21.6261 10.1935C22.4845 10.1935 22.9137 10.4081 23.2356 10.5154C23.6648 10.73 23.9866 10.8373 24.3085 11.1592C24.6304 11.4811 24.845 11.803 24.9523 12.2322C25.0596 12.5541 25.1669 12.9833 25.2742 13.8416C25.2742 14.8073 25.2742 15.0219 25.2742 17.4898C25.2742 19.9576 25.2742 20.1722 25.2742 21.1379C25.2742 21.9963 25.0596 22.4255 24.9523 22.7473C24.7377 23.1765 24.6304 23.4984 24.3085 23.8203C23.9866 24.1422 23.6648 24.3568 23.2356 24.4641C22.9137 24.5714 22.4845 24.6787 21.6261 24.786C20.6604 24.786 20.4458 24.786 17.978 24.786C15.5101 24.786 15.2955 24.786 14.3299 24.786C13.4715 24.786 13.0423 24.5714 12.7204 24.4641C12.2912 24.2495 11.9693 24.1422 11.6474 23.8203C11.3255 23.4984 11.1109 23.1765 11.0036 22.7473C10.8963 22.4255 10.789 21.9963 10.6817 21.1379C10.6817 20.1722 10.6817 19.9576 10.6817 17.4898C10.6817 15.0219 10.6817 14.8073 10.6817 13.8416C10.6817 12.9833 10.8963 12.5541 11.0036 12.2322C11.2182 11.803 11.3255 11.4811 11.6474 11.1592C11.9693 10.8373 12.2912 10.6227 12.7204 10.5154C13.0423 10.4081 13.4715 10.3008 14.3299 10.1935C15.2955 10.1935 15.6174 10.1935 17.978 10.1935ZM17.978 8.58405C15.5101 8.58405 15.2955 8.58405 14.3299 8.58405C13.3642 8.58405 12.7204 8.79864 12.1839 9.01324C11.6474 9.22783 11.1109 9.54973 10.5744 10.0862C10.0379 10.6227 9.82335 11.0519 9.50146 11.6957C9.28686 12.2322 9.17956 12.876 9.07227 13.8416C9.07227 14.8073 9.07227 15.1292 9.07227 17.4898C9.07227 19.9576 9.07227 20.1722 9.07227 21.1379C9.07227 22.1036 9.28686 22.7473 9.50146 23.2838C9.71605 23.8203 10.0379 24.3568 10.5744 24.8933C11.1109 25.4298 11.5401 25.6444 12.1839 25.9663C12.7204 26.1809 13.3642 26.2882 14.3299 26.3955C15.2955 26.3955 15.6174 26.3955 17.978 26.3955C20.3385 26.3955 20.6604 26.3955 21.6261 26.3955C22.5918 26.3955 23.2356 26.1809 23.7721 25.9663C24.3085 25.7517 24.845 25.4298 25.3815 24.8933C25.918 24.3568 26.1326 23.9276 26.4545 23.2838C26.6691 22.7473 26.7764 22.1036 26.8837 21.1379C26.8837 20.1722 26.8837 19.8503 26.8837 17.4898C26.8837 15.1292 26.8837 14.8073 26.8837 13.8416C26.8837 12.876 26.6691 12.2322 26.4545 11.6957C26.2399 11.1592 25.918 10.6227 25.3815 10.0862C24.845 9.54973 24.4158 9.33513 23.7721 9.01324C23.2356 8.79864 22.5918 8.69134 21.6261 8.58405C20.6604 8.58405 20.4458 8.58405 17.978 8.58405Z" fill="#CBF244"/>
<path d="M17.978 12.876C15.4028 12.876 13.3642 14.9146 13.3642 17.4898C13.3642 20.0649 15.4028 22.1036 17.978 22.1036C20.5531 22.1036 22.5918 20.0649 22.5918 17.4898C22.5918 14.9146 20.5531 12.876 17.978 12.876ZM17.978 20.4941C16.3685 20.4941 14.9736 19.2065 14.9736 17.4898C14.9736 15.8803 16.2612 14.4854 17.978 14.4854C19.5874 14.4854 20.9823 15.773 20.9823 17.4898C20.9823 19.0992 19.5874 20.4941 17.978 20.4941Z" fill="#CBF244"/>
<path d="M22.6991 13.8416C23.2917 13.8416 23.7721 13.3612 23.7721 12.7687C23.7721 12.1761 23.2917 11.6957 22.6991 11.6957C22.1065 11.6957 21.6261 12.1761 21.6261 12.7687C21.6261 13.3612 22.1065 13.8416 22.6991 13.8416Z" fill="#CBF244"/>
</svg>
